<svg xmlns="http://www.w3.org/2000/svg" width="120" height="155" viewBox="0 0 120 155">
  <g id="arrow" transform="translate(-1633 -1311)">
    <path id="Polygon_1" data-name="Polygon 1" d="M48.412,14.1a15,15,0,0,1,23.176,0L99.843,48.476A15,15,0,0,1,88.255,73H31.745A15,15,0,0,1,20.157,48.476Z" transform="translate(1633 1311)"/>
    <path id="Polygon_2" data-name="Polygon 2" d="M48.412,14.1a15,15,0,0,1,23.176,0L99.843,48.476A15,15,0,0,1,88.255,73H31.745A15,15,0,0,1,20.157,48.476Z" transform="translate(1753 1466) rotate(180)"/>
  </g>
</svg>
